<svg xmlns="http://www.w3.org/2000/svg" version="1.1" xmlns:xlink="http://www.w3.org/1999/xlink" xmlns:svgjs="http://svgjs.dev/svgjs" width="1440" height="250" preserveAspectRatio="none" viewBox="0 0 1440 250"><g mask="url(&quot;#SvgjsMask1009&quot;)" fill="none"><rect width="1440" height="250" x="0" y="0" fill="rgba(97, 175, 255, 1)"></rect><path d="M46 250L296 0L528.5 0L278.5 250z" fill="url(&quot;#SvgjsLinearGradient1010&quot;)"></path><path d="M282.6 250L532.6 0L594.1 0L344.1 250z" fill="url(&quot;#SvgjsLinearGradient1010&quot;)"></path><path d="M515.2 250L765.2 0L882.2 0L632.2 250z" fill="url(&quot;#SvgjsLinearGradient1010&quot;)"></path><path d="M754.8000000000001 250L1004.8000000000001 0L1069.3000000000002 0L819.3000000000001 250z" fill="url(&quot;#SvgjsLinearGradient1010&quot;)"></path><path d="M1437 250L1187 0L962 0L1212 250z" fill="url(&quot;#SvgjsLinearGradient1011&quot;)"></path><path d="M1163.4 250L913.4000000000001 0L829.4000000000001 0L1079.4 250z" fill="url(&quot;#SvgjsLinearGradient1011&quot;)"></path><path d="M923.8 250L673.8 0L439.79999999999995 0L689.8 250z" fill="url(&quot;#SvgjsLinearGradient1011&quot;)"></path><path d="M709.1999999999999 250L459.19999999999993 0L139.69999999999993 0L389.69999999999993 250z" fill="url(&quot;#SvgjsLinearGradient1011&quot;)"></path><path d="M1207.211848753153 250L1440 17.21184875315285L1440 250z" fill="url(&quot;#SvgjsLinearGradient1010&quot;)"></path><path d="M0 250L232.78815124684715 250L 0 17.21184875315285z" fill="url(&quot;#SvgjsLinearGradient1011&quot;)"></path></g><defs><mask id="SvgjsMask1009"><rect width="1440" height="250" fill="#ffffff"></rect></mask><linearGradient x1="0%" y1="100%" x2="100%" y2="0%" id="SvgjsLinearGradient1010"><stop stop-color="rgba(15, 70, 185, 0.2)" offset="0"></stop><stop stop-opacity="0" stop-color="rgba(15, 70, 185, 0.2)" offset="0.66"></stop></linearGradient><linearGradient x1="100%" y1="100%" x2="0%" y2="0%" id="SvgjsLinearGradient1011"><stop stop-color="rgba(15, 70, 185, 0.2)" offset="0"></stop><stop stop-opacity="0" stop-color="rgba(15, 70, 185, 0.2)" offset="0.66"></stop></linearGradient></defs></svg>