<svg width="470.5" height="79.801" viewBox="0 0 470.5 79.801" xmlns="http://www.w3.org/2000/svg"><g id="svgGroup" stroke-linecap="round" fill-rule="evenodd" font-size="24pt" stroke="#13103c" stroke-width="0.25mm" fill="#c10000" style="stroke:#c10000;stroke-width:0.25mm;fill:#c10000"><path d="M 263.7 7.2 L 266 7.2 Q 265.931 8.369 265.839 9.845 A 1142.924 1142.924 0 0 1 265.75 11.25 A 71.255 71.255 0 0 0 265.681 12.519 Q 265.601 14.275 265.562 16.655 A 233.178 233.178 0 0 0 265.55 17.45 Q 265.5 21.3 265.5 27.6 L 263.2 27.6 Q 262.9 22.8 261.1 18.4 A 18.334 18.334 0 0 0 257.845 13.106 A 17.002 17.002 0 0 0 255.85 11.2 A 12.063 12.063 0 0 0 250.995 8.862 Q 249.075 8.4 246.8 8.4 A 14.418 14.418 0 0 0 242.657 8.97 A 11.547 11.547 0 0 0 238.05 11.6 A 10.629 10.629 0 0 0 234.654 18.731 A 14.616 14.616 0 0 0 234.6 20 A 14.586 14.586 0 0 0 235.009 23.539 A 11.012 11.012 0 0 0 236.9 27.55 A 20.711 20.711 0 0 0 240.127 30.918 A 27.312 27.312 0 0 0 243.05 33.05 Q 246.9 35.5 251.4 38.3 Q 256.6 41.5 260.65 44.65 A 29.243 29.243 0 0 1 264.668 48.399 A 23.771 23.771 0 0 1 267.05 51.6 A 15.374 15.374 0 0 1 269.056 56.9 A 21.105 21.105 0 0 1 269.4 60.8 A 23.279 23.279 0 0 1 268.957 65.464 Q 268.267 68.841 266.5 71.4 Q 263.6 75.6 258.8 77.7 A 25.255 25.255 0 0 1 250.69 79.7 A 30.344 30.344 0 0 1 248.2 79.8 A 38.339 38.339 0 0 1 245.102 79.683 Q 241.931 79.425 239.8 78.6 Q 237.136 77.569 235.137 76.464 A 25.48 25.48 0 0 1 234.5 76.1 Q 232.809 75.024 231.709 74.775 A 2.775 2.775 0 0 0 231.1 74.7 A 1.38 1.38 0 0 0 229.947 75.268 Q 229.782 75.484 229.658 75.781 A 3.009 3.009 0 0 0 229.65 75.8 A 7.173 7.173 0 0 0 229.396 76.55 Q 229.111 77.553 228.9 79.1 L 226.6 79.1 A 48.767 48.767 0 0 0 226.729 77.42 Q 226.819 75.931 226.85 74.15 Q 226.9 71.3 226.95 66.7 Q 227 62.1 227 55.1 L 229.3 55.1 A 42.905 42.905 0 0 0 230.692 63.566 A 38.078 38.078 0 0 0 231.55 66.3 Q 233.4 71.5 237.25 74.65 A 13.29 13.29 0 0 0 242.388 77.197 Q 244.339 77.706 246.637 77.785 A 24.97 24.97 0 0 0 247.5 77.8 Q 250.8 77.8 253.75 76.45 A 11.141 11.141 0 0 0 258.172 72.776 A 13.591 13.591 0 0 0 258.6 72.15 A 11.15 11.15 0 0 0 260.01 68.822 Q 260.378 67.371 260.469 65.665 A 21.666 21.666 0 0 0 260.5 64.5 Q 260.5 60.4 258.55 57.35 A 19.727 19.727 0 0 0 255.866 54.045 A 26.568 26.568 0 0 0 253.1 51.65 A 75.805 75.805 0 0 0 249.332 48.984 Q 247.333 47.654 245.048 46.288 A 122.394 122.394 0 0 0 244.9 46.2 A 138.807 138.807 0 0 1 238.188 41.794 A 122.447 122.447 0 0 1 236.1 40.3 Q 232 37.3 229.55 33.35 A 15.981 15.981 0 0 1 227.445 27.768 A 21.863 21.863 0 0 1 227.1 23.8 A 21.594 21.594 0 0 1 227.504 19.503 Q 228.135 16.396 229.75 14.05 Q 232.4 10.2 236.7 8.35 Q 241 6.5 245.9 6.5 A 43.173 43.173 0 0 1 245.977 6.5 Q 250.552 6.508 253.103 7.486 A 8.552 8.552 0 0 1 253.5 7.65 A 30.051 30.051 0 0 1 256.235 9.023 A 23.901 23.901 0 0 1 258.1 10.2 A 41.898 41.898 0 0 0 258.806 10.603 Q 259.534 11.009 260.05 11.25 A 3.933 3.933 0 0 0 260.776 11.51 A 3.035 3.035 0 0 0 261.5 11.6 A 1.38 1.38 0 0 0 262.653 11.032 Q 262.818 10.816 262.942 10.519 A 3.009 3.009 0 0 0 262.95 10.5 A 7.173 7.173 0 0 0 263.204 9.75 Q 263.489 8.747 263.7 7.2 Z M 415.1 42.4 L 415.1 69.1 Q 415.1 72.604 416.318 74.229 A 3.565 3.565 0 0 0 416.85 74.8 Q 418.445 76.167 421.992 76.288 A 20.755 20.755 0 0 0 422.7 76.3 L 422.7 78.4 Q 421.015 78.301 417.562 78.153 A 902.368 902.368 0 0 0 417.5 78.15 A 159.797 159.797 0 0 0 411.113 78.001 A 146.011 146.011 0 0 0 410.7 78 Q 407.4 78 404.25 78.15 Q 401.1 78.3 399.5 78.4 L 399.5 76.3 Q 402.748 76.3 404.286 75.079 A 3.662 3.662 0 0 0 404.6 74.8 A 3.952 3.952 0 0 0 405.423 73.525 Q 406.1 71.922 406.1 69.1 L 406.1 40.2 A 33.559 33.559 0 0 0 405.942 36.871 A 26.473 26.473 0 0 0 405.6 34.5 A 8.279 8.279 0 0 0 404.822 32.216 A 6.913 6.913 0 0 0 403.35 30.3 Q 402.031 29.094 399.661 28.797 A 13.382 13.382 0 0 0 398 28.7 A 12.372 12.372 0 0 0 393.411 29.535 A 11.541 11.541 0 0 0 390.65 31.1 Q 387.5 33.5 385.75 37.65 Q 384 41.8 384 46.9 L 384 69.1 Q 384 72.423 384.939 74.056 A 3.54 3.54 0 0 0 385.5 74.8 Q 386.933 76.233 390.284 76.297 A 16.619 16.619 0 0 0 390.6 76.3 L 390.6 78.4 Q 389.375 78.323 387.241 78.218 A 699.179 699.179 0 0 0 385.85 78.15 Q 382.7 78 379.4 78 A 158.016 158.016 0 0 0 373.037 78.132 A 172.733 172.733 0 0 0 372.6 78.15 Q 369.1 78.3 367.4 78.4 L 367.4 76.3 Q 370.941 76.3 372.729 75.181 A 4.317 4.317 0 0 0 373.25 74.8 Q 374.826 73.449 374.983 69.909 A 18.297 18.297 0 0 0 375 69.1 L 375 37.8 A 20.211 20.211 0 0 0 374.873 35.455 Q 374.55 32.695 373.4 31.15 Q 371.842 29.057 367.631 29.002 A 17.559 17.559 0 0 0 367.4 29 L 367.4 26.9 A 67.314 67.314 0 0 0 372.847 27.195 A 60.756 60.756 0 0 0 373.6 27.2 Q 376.5 27.2 379.15 26.85 A 31.037 31.037 0 0 0 381.989 26.346 A 24.902 24.902 0 0 0 384 25.8 L 384 37.6 Q 385.939 32.529 389.018 29.766 A 12.904 12.904 0 0 1 391.25 28.15 Q 395.9 25.5 401 25.5 Q 403.909 25.5 406.086 26.086 A 12.027 12.027 0 0 1 407.35 26.5 Q 409.9 27.5 411.6 29.3 Q 413.5 31.3 414.3 34.3 Q 415.1 37.3 415.1 42.4 Z M 135 25.8 L 135 67.6 Q 135 71.837 136.463 73.991 A 5.521 5.521 0 0 0 136.65 74.25 Q 138.3 76.4 142.6 76.4 L 142.6 78.5 Q 139.5 78.2 136.4 78.2 A 50.934 50.934 0 0 0 132.191 78.369 A 44.952 44.952 0 0 0 130.85 78.5 A 22.818 22.818 0 0 0 127.787 79.051 A 18.787 18.787 0 0 0 126 79.6 L 126 67.8 A 24.184 24.184 0 0 1 123.951 71.967 Q 121.874 75.283 118.95 77.05 A 19.393 19.393 0 0 1 113.899 79.235 A 16.661 16.661 0 0 1 109.6 79.8 A 20.739 20.739 0 0 1 106.71 79.609 Q 104.963 79.363 103.5 78.8 A 12.49 12.49 0 0 1 100.86 77.422 A 10.486 10.486 0 0 1 99.2 76 A 9.735 9.735 0 0 1 97.241 72.902 A 13.056 13.056 0 0 1 96.6 70.8 A 26.662 26.662 0 0 1 96.173 68.189 Q 96.007 66.756 95.942 65.106 A 56.034 56.034 0 0 1 95.9 62.9 L 95.9 37.8 A 20.211 20.211 0 0 0 95.773 35.455 Q 95.45 32.695 94.3 31.15 Q 92.742 29.057 88.531 29.002 A 17.559 17.559 0 0 0 88.3 29 L 88.3 26.9 A 67.314 67.314 0 0 0 93.747 27.195 A 60.756 60.756 0 0 0 94.5 27.2 Q 97.4 27.2 100.05 26.85 A 31.037 31.037 0 0 0 102.889 26.346 A 24.902 24.902 0 0 0 104.9 25.8 L 104.9 65.1 A 41.908 41.908 0 0 0 105.026 68.418 A 32.737 32.737 0 0 0 105.3 70.8 A 8.607 8.607 0 0 0 105.88 72.884 A 6.668 6.668 0 0 0 107.3 75 Q 108.9 76.6 112.5 76.6 Q 116.4 76.6 119.45 74.2 A 15.118 15.118 0 0 0 123.096 69.985 A 19.302 19.302 0 0 0 124.25 67.7 A 21.773 21.773 0 0 0 125.829 61.59 A 27.217 27.217 0 0 0 126 58.5 L 126 37.8 A 20.211 20.211 0 0 0 125.873 35.455 Q 125.55 32.695 124.4 31.15 Q 122.842 29.057 118.631 29.002 A 17.559 17.559 0 0 0 118.4 29 L 118.4 26.9 A 67.314 67.314 0 0 0 123.847 27.195 A 60.756 60.756 0 0 0 124.6 27.2 Q 127.5 27.2 130.15 26.85 A 31.037 31.037 0 0 0 132.989 26.346 A 24.902 24.902 0 0 0 135 25.8 Z M 190.7 47.5 L 155.4 47.5 L 155.3 45.6 L 181.1 45.6 A 39.541 39.541 0 0 0 181.133 43.987 Q 181.133 40.008 180.3 36.55 Q 179.3 32.4 177.15 29.9 A 6.914 6.914 0 0 0 172.124 27.415 A 8.868 8.868 0 0 0 171.6 27.4 Q 167.095 27.4 163.598 31.811 A 18.243 18.243 0 0 0 163.45 32 Q 159.9 36.6 159.2 46.6 L 159.5 47 Q 159.3 48.5 159.2 50.3 Q 159.1 52.1 159.1 53.9 Q 159.1 60.178 160.975 64.836 A 21.103 21.103 0 0 0 161.3 65.6 A 21.979 21.979 0 0 0 163.397 69.316 A 15.751 15.751 0 0 0 167.05 73.05 A 14.386 14.386 0 0 0 170.319 74.837 A 11.386 11.386 0 0 0 174.4 75.6 Q 177.4 75.6 180.1 74.65 A 13.369 13.369 0 0 0 184.037 72.433 A 16.19 16.19 0 0 0 185.1 71.5 A 15.854 15.854 0 0 0 187.246 68.931 Q 188.248 67.454 189.1 65.6 L 191.1 66.4 A 19.252 19.252 0 0 1 188.99 70.744 A 23.943 23.943 0 0 1 187.5 72.8 Q 185 75.9 181.2 77.85 A 17.509 17.509 0 0 1 175.698 79.569 A 22.783 22.783 0 0 1 172.4 79.8 A 26.268 26.268 0 0 1 166.296 79.122 A 20.138 20.138 0 0 1 160.05 76.5 Q 154.9 73.2 152.15 67.35 A 28.542 28.542 0 0 1 149.787 59.354 A 37.111 37.111 0 0 1 149.4 53.9 A 46.365 46.365 0 0 1 149.917 46.79 Q 150.603 42.371 152.2 38.75 A 24.854 24.854 0 0 1 155.668 33.011 A 20.633 20.633 0 0 1 160.1 28.95 A 20.136 20.136 0 0 1 169.815 25.593 A 25.268 25.268 0 0 1 172 25.5 A 23.24 23.24 0 0 1 177.77 26.176 A 16.025 16.025 0 0 1 185.75 30.85 Q 189.403 34.798 190.36 41.988 A 41.868 41.868 0 0 1 190.7 47.5 Z M 470.1 47.5 L 434.8 47.5 L 434.7 45.6 L 460.5 45.6 A 39.541 39.541 0 0 0 460.533 43.987 Q 460.533 40.008 459.7 36.55 Q 458.7 32.4 456.55 29.9 A 6.914 6.914 0 0 0 451.524 27.415 A 8.868 8.868 0 0 0 451 27.4 Q 446.495 27.4 442.998 31.811 A 18.243 18.243 0 0 0 442.85 32 Q 439.3 36.6 438.6 46.6 L 438.9 47 Q 438.7 48.5 438.6 50.3 Q 438.5 52.1 438.5 53.9 Q 438.5 60.178 440.375 64.836 A 21.103 21.103 0 0 0 440.7 65.6 A 21.979 21.979 0 0 0 442.797 69.316 A 15.751 15.751 0 0 0 446.45 73.05 A 14.386 14.386 0 0 0 449.719 74.837 A 11.386 11.386 0 0 0 453.8 75.6 Q 456.8 75.6 459.5 74.65 A 13.369 13.369 0 0 0 463.437 72.433 A 16.19 16.19 0 0 0 464.5 71.5 A 15.854 15.854 0 0 0 466.646 68.931 Q 467.648 67.454 468.5 65.6 L 470.5 66.4 A 19.252 19.252 0 0 1 468.39 70.744 A 23.943 23.943 0 0 1 466.9 72.8 Q 464.4 75.9 460.6 77.85 A 17.509 17.509 0 0 1 455.098 79.569 A 22.783 22.783 0 0 1 451.8 79.8 A 26.268 26.268 0 0 1 445.696 79.122 A 20.138 20.138 0 0 1 439.45 76.5 Q 434.3 73.2 431.55 67.35 A 28.542 28.542 0 0 1 429.187 59.354 A 37.111 37.111 0 0 1 428.8 53.9 A 46.365 46.365 0 0 1 429.317 46.79 Q 430.003 42.371 431.6 38.75 A 24.854 24.854 0 0 1 435.068 33.011 A 20.633 20.633 0 0 1 439.5 28.95 A 20.136 20.136 0 0 1 449.215 25.593 A 25.268 25.268 0 0 1 451.4 25.5 A 23.24 23.24 0 0 1 457.17 26.176 A 16.025 16.025 0 0 1 465.15 30.85 Q 468.803 34.798 469.76 41.988 A 41.868 41.868 0 0 1 470.1 47.5 Z M 0 9.6 L 0 7.6 Q 1.879 7.689 4.797 7.779 A 569.544 569.544 0 0 0 5.5 7.8 Q 8.9 7.9 12.2 7.9 Q 16.9 7.9 21.2 7.8 A 703.938 703.938 0 0 1 23.194 7.756 Q 25.659 7.706 27 7.701 A 76.038 76.038 0 0 1 27.3 7.7 Q 33.878 7.7 38.415 9.427 A 16.391 16.391 0 0 1 43.1 12.1 A 14.496 14.496 0 0 1 47.157 17.302 A 14.656 14.656 0 0 1 48.4 23.4 Q 48.4 26.9 46.95 30.25 A 14.845 14.845 0 0 1 44.395 34.203 A 19.666 19.666 0 0 1 42.15 36.35 Q 39.389 38.617 35.099 40.17 A 37.999 37.999 0 0 1 33.2 40.8 L 33.2 41 A 47.772 47.772 0 0 1 38.013 41.845 Q 42.56 42.902 45.55 44.75 Q 49.534 47.212 51.394 50.435 A 12.267 12.267 0 0 1 51.8 51.2 Q 53.6 54.9 53.6 59 A 19.319 19.319 0 0 1 52.723 64.908 A 16.907 16.907 0 0 1 50.75 69.05 A 18.076 18.076 0 0 1 45.336 74.347 A 23.226 23.226 0 0 1 42.5 75.9 A 25.901 25.901 0 0 1 36.221 77.841 Q 33.433 78.348 30.261 78.395 A 44.171 44.171 0 0 1 29.6 78.4 Q 27.4 78.4 23 78.25 A 228.602 228.602 0 0 0 19.447 78.159 Q 17.861 78.129 16.099 78.115 A 445.661 445.661 0 0 0 12.4 78.1 Q 8.9 78.1 5.5 78.15 Q 2.459 78.195 0.457 78.359 A 35.883 35.883 0 0 0 0 78.4 L 0 76.4 Q 2.947 76.227 4.654 75.753 A 8.723 8.723 0 0 0 5.15 75.6 A 3.554 3.554 0 0 0 7.332 73.631 A 4.55 4.55 0 0 0 7.5 73.2 Q 8.006 71.682 8.085 68.883 A 38.321 38.321 0 0 0 8.1 67.8 L 8.1 18.2 Q 8.1 14.5 7.5 12.75 Q 6.9 11 5.15 10.35 A 8.883 8.883 0 0 0 3.904 9.999 Q 2.344 9.669 0 9.6 Z M 293.3 10.3 L 293.3 27 L 308.1 27 L 308.1 29 L 293.3 29 L 293.3 67.7 A 20.661 20.661 0 0 0 293.406 69.875 Q 293.652 72.184 294.464 73.56 A 4.645 4.645 0 0 0 295 74.3 A 5.57 5.57 0 0 0 298.281 76.081 A 8.111 8.111 0 0 0 299.7 76.2 A 6.619 6.619 0 0 0 304.409 74.257 A 9.127 9.127 0 0 0 304.9 73.75 A 10.947 10.947 0 0 0 306.216 71.892 Q 307.378 69.873 308.34 66.738 A 45.24 45.24 0 0 0 308.7 65.5 L 310.7 66 A 26.438 26.438 0 0 1 309.334 71.042 A 20.273 20.273 0 0 1 306.75 75.8 A 9.491 9.491 0 0 1 300.923 79.475 A 15.043 15.043 0 0 1 297.7 79.8 A 22.414 22.414 0 0 1 295.411 79.69 Q 294.282 79.574 293.326 79.335 A 10.426 10.426 0 0 1 292.1 78.95 Q 289.9 78.1 288.2 76.5 Q 286 74.2 285.15 71 A 21.208 21.208 0 0 1 284.666 68.552 Q 284.483 67.265 284.392 65.752 A 54.037 54.037 0 0 1 284.3 62.5 L 284.3 29 L 274.7 29 L 274.7 27 L 284.3 27 L 284.3 11.7 A 54.889 54.889 0 0 0 288.23 11.405 A 49.013 49.013 0 0 0 289.1 11.3 A 21.082 21.082 0 0 0 291.69 10.803 A 17.204 17.204 0 0 0 293.3 10.3 Z M 76.9 0 L 76.9 69.1 Q 76.9 72.604 78.118 74.229 A 3.565 3.565 0 0 0 78.65 74.8 Q 80.245 76.167 83.792 76.288 A 20.755 20.755 0 0 0 84.5 76.3 L 84.5 78.4 Q 82.804 78.3 79.365 78.151 A 3336.726 3336.726 0 0 1 79.35 78.15 Q 75.9 78 72.4 78 Q 69 78 65.5 78.15 Q 62 78.3 60.3 78.4 L 60.3 76.3 Q 63.841 76.3 65.629 75.181 A 4.317 4.317 0 0 0 66.15 74.8 Q 67.726 73.449 67.883 69.909 A 18.297 18.297 0 0 0 67.9 69.1 L 67.9 12 A 20.211 20.211 0 0 0 67.773 9.655 Q 67.45 6.895 66.3 5.35 Q 64.742 3.257 60.531 3.202 A 17.559 17.559 0 0 0 60.3 3.2 L 60.3 1.1 A 67.314 67.314 0 0 0 65.747 1.395 A 60.756 60.756 0 0 0 66.5 1.4 Q 69.4 1.4 72.05 1.05 A 31.037 31.037 0 0 0 74.889 0.546 A 24.902 24.902 0 0 0 76.9 0 Z M 17.4 18.2 L 17.4 67.8 Q 17.4 70.833 17.851 72.59 A 7.544 7.544 0 0 0 18 73.1 A 4.354 4.354 0 0 0 18.591 74.281 A 3.419 3.419 0 0 0 20.2 75.5 Q 21.8 76.1 24.9 76.1 A 33.468 33.468 0 0 0 29.989 75.74 Q 32.644 75.331 34.751 74.455 A 13.082 13.082 0 0 0 39.15 71.55 Q 43.174 67.435 43.559 60.173 A 29.703 29.703 0 0 0 43.6 58.6 A 22.988 22.988 0 0 0 43.153 53.924 Q 42.238 49.522 39.45 46.7 Q 35.3 42.5 25.8 42.5 L 15.5 42.5 L 15.5 41.65 L 15.5 40.8 L 24.1 40.8 Q 30 40.8 33.2 38.55 Q 36.4 36.3 37.6 32.55 A 25.596 25.596 0 0 0 38.758 26.093 A 29.757 29.757 0 0 0 38.8 24.5 Q 38.8 19.713 37.44 16.453 A 11.393 11.393 0 0 0 35.55 13.35 A 9.717 9.717 0 0 0 31.569 10.658 Q 29.959 10.046 27.948 9.788 A 24.772 24.772 0 0 0 24.8 9.6 A 19.669 19.669 0 0 0 22.941 9.681 Q 20.951 9.871 19.794 10.503 A 3.344 3.344 0 0 0 18.8 11.3 Q 17.401 12.998 17.4 18.19 A 38.214 38.214 0 0 0 17.4 18.2 Z M 344.242 26.487 A 25.094 25.094 0 0 0 337.1 25.5 A 27.65 27.65 0 0 0 335.929 25.525 A 23.285 23.285 0 0 0 325.65 28.3 Q 320.5 31.1 317.45 37.1 Q 315.448 41.038 314.76 46.525 A 49.733 49.733 0 0 0 314.4 52.7 A 53.041 53.041 0 0 0 314.558 56.875 Q 314.812 60.089 315.475 62.813 A 24.702 24.702 0 0 0 317.45 68.25 Q 320.5 74.2 325.65 77 A 22.498 22.498 0 0 0 329.154 78.536 A 24.5 24.5 0 0 0 337.1 79.8 A 27.7 27.7 0 0 0 339.454 79.702 A 22.804 22.804 0 0 0 348.6 77 A 18.297 18.297 0 0 0 353.44 73.136 A 22.958 22.958 0 0 0 356.75 68.25 A 23.154 23.154 0 0 0 358.205 64.676 Q 359.042 62.035 359.44 58.869 A 49.589 49.589 0 0 0 359.8 52.7 A 53.458 53.458 0 0 0 359.657 48.707 Q 359.139 41.799 356.75 37.1 A 24.656 24.656 0 0 0 354.872 33.978 A 18.72 18.72 0 0 0 348.6 28.3 A 21.948 21.948 0 0 0 344.242 26.487 Z M 337.1 27.5 A 9.824 9.824 0 0 0 329.703 30.819 A 16.158 16.158 0 0 0 327.75 33.4 Q 324.659 38.397 324.186 48.773 A 86.309 86.309 0 0 0 324.1 52.7 A 78.004 78.004 0 0 0 324.358 59.286 Q 324.903 65.693 326.602 69.713 A 15.956 15.956 0 0 0 327.75 71.95 A 15.376 15.376 0 0 0 330.165 74.972 A 9.745 9.745 0 0 0 337.1 77.8 A 9.881 9.881 0 0 0 344.562 74.44 A 16.133 16.133 0 0 0 346.45 71.95 Q 350.1 66.1 350.1 52.7 A 78.131 78.131 0 0 0 349.842 46.11 Q 349.29 39.615 347.555 35.55 A 16.105 16.105 0 0 0 346.45 33.4 Q 342.8 27.5 337.1 27.5 Z" vector-effect="non-scaling-stroke"/></g></svg>